<svg id="api" xmlns="http://www.w3.org/2000/svg" width="14" height="14" viewBox="0 0 14 14">
  <metadata><?xpacket begin="﻿" id="W5M0MpCehiHzreSzNTczkc9d"?>
<x:xmpmeta xmlns:x="adobe:ns:meta/" x:xmptk="Adobe XMP Core 5.6-c142 79.160924, 2017/07/13-01:06:39        ">
   <rdf:RDF xmlns:rdf="http://www.w3.org/1999/02/22-rdf-syntax-ns#">
      <rdf:Description rdf:about=""/>
   </rdf:RDF>
</x:xmpmeta>
                                                                                                    
                                                                                                    
                                                                                                    
                                                                                                    
                                                                                                    
                                                                                                    
                                                                                                    
                                                                                                    
                                                                                                    
                                                                                                    
                                                                                                    
                                                                                                    
                                                                                                    
                                                                                                    
                                                                                                    
                                                                                                    
                                                                                                    
                                                                                                    
                                                                                                    
                                                                                                    
                           
<?xpacket end="w"?></metadata>
<defs>
    <style>
      .cls-1 {
        fill: #ff7c00;
      }

      .cls-1, .cls-2 {
        fill-rule: evenodd;
      }

      .cls-2 {
        fill: #3c4555;
      }
    </style>
  </defs>
  <path id="形状_1" data-name="形状 1" class="cls-1" d="M2050.13,97.6a0.133,0.133,0,0,0-.19,0l-1.14,1.143-1.56-1.55,1.15-1.145a0.144,0.144,0,0,0,0-.194l-0.63-.625a0.133,0.133,0,0,0-.19,0l-1.15,1.145-0.74-.738a0.116,0.116,0,0,0-.09-0.039,0.129,0.129,0,0,0-.1.039l-1.75,1.749a3.42,3.42,0,0,0-.42,4.351l-1.31,1.306a0.144,0.144,0,0,0,0,.194l0.73,0.728a0.139,0.139,0,0,0,.1.039,0.169,0.169,0,0,0,.1-0.039l1.3-1.307a3.446,3.446,0,0,0,4.36-.417l1.76-1.749a0.144,0.144,0,0,0,0-.194l-0.74-.737,1.14-1.145a0.127,0.127,0,0,0,0-.194Zm0,0" transform="translate(-2042 -90)"/>
  <path id="矩形_2" data-name="矩形 2" class="cls-2" d="M2055.96,90.767l-0.73-.728a0.137,0.137,0,0,0-.1-0.04,0.165,0.165,0,0,0-.1.04l-1.3,1.306a3.447,3.447,0,0,0-4.36.417l-1.76,1.749a0.144,0.144,0,0,0,0,.194l4.68,4.663a0.116,0.116,0,0,0,.09.04,0.144,0.144,0,0,0,.1-0.04l1.75-1.749a3.42,3.42,0,0,0,.42-4.351l1.31-1.306a0.146,0.146,0,0,0,0-.2h0Z" transform="translate(-2042 -90)"/>
</svg>
