<?xml version="1.0" standalone="no"?><!DOCTYPE svg PUBLIC "-//W3C//DTD SVG 1.1//EN" "http://www.w3.org/Graphics/SVG/1.1/DTD/svg11.dtd"><svg t="1683476745334" class="icon" viewBox="0 0 1075 1024" version="1.1" xmlns="http://www.w3.org/2000/svg" p-id="4596" xmlns:xlink="http://www.w3.org/1999/xlink" width="83.984375" height="80"><path d="M849.5 933.875H216.6875a126.5625 126.5625 0 0 1-126.5625-126.5625V216.6875a126.5625 126.5625 0 0 1 126.5625-126.5625h632.8125a126.5625 126.5625 0 0 1 126.5625 126.5625v590.625a126.5625 126.5625 0 0 1-126.5625 126.5625z m42.1875-717.1875a42.1875 42.1875 0 0 0-42.1875-42.1875H216.6875a42.1875 42.1875 0 0 0-42.1875 42.1875v590.625a42.1875 42.1875 0 0 0 42.1875 42.1875h632.8125a42.1875 42.1875 0 0 0 42.1875-42.1875V216.6875z m-126.0140625 337.9640625c-23.3296875 0-42.1875-17.6765625-42.1875-39.4875V344.4734375c-0.8015625-0.3375-1.6453125-0.3796875-2.4046875-0.7171875h-6.7078125a41.68125 41.68125 0 0 1-5.315625 51.6796875l-268.48125 268.48125a42.1875 42.1875 0 0 1-59.653125-59.653125l260.465625-260.5078125h-89.4375c-21.76875 0-39.4453125-18.9-39.4453125-42.1875 0-23.3296875 17.6765625-42.1875 39.4453125-42.1875H680.75V258.875h126.5625v78.890625c0.084375 1.096875 0.5484375 2.109375 0.5484375 3.2484375v174.15c0 21.8109375-18.9 39.4875-42.1875 39.4875z" p-id="4597"></path></svg>