<?xml version="1.0" standalone="no"?><!DOCTYPE svg PUBLIC "-//W3C//DTD SVG 1.1//EN" "http://www.w3.org/Graphics/SVG/1.1/DTD/svg11.dtd"><svg t="1683642088430" class="icon" viewBox="0 0 1024 1024" version="1.1" xmlns="http://www.w3.org/2000/svg" p-id="10644" xmlns:xlink="http://www.w3.org/1999/xlink" width="200" height="200"><path d="M527.104 188.970667a117.333333 117.333333 0 0 1 165.930667 0l120.661333 120.661333a117.333333 117.333333 0 0 1 0 165.973333l-52.778667 52.778667a32 32 0 1 1-45.269333-45.226667l52.778667-52.821333a53.333333 53.333333 0 0 0 0-75.434667L647.765333 234.24a53.333333 53.333333 0 0 0-75.434666 0l-143.274667 143.274667a53.333333 53.333333 0 0 0 0 75.434666l37.674667 37.717334a32 32 0 1 1-45.226667 45.226666l-37.717333-37.674666a117.333333 117.333333 0 0 1 0-165.973334l143.317333-143.274666z" fill="#517ab4" p-id="10645"></path><path d="M579.882667 543.445333l-37.717334-37.674666a32 32 0 1 1 45.226667-45.269334l37.76 37.717334a117.333333 117.333333 0 0 1 0 165.930666l-128.256 128.213334a117.333333 117.333333 0 0 1-165.930667 0L210.346667 671.701333a117.333333 117.333333 0 0 1 0-165.973333l45.226666-45.226667a32 32 0 0 1 45.269334 45.226667l-45.226667 45.269333a53.333333 53.333333 0 0 0 0 75.434667l120.661333 120.661333a53.333333 53.333333 0 0 0 75.434667 0l128.213333-128.213333a53.333333 53.333333 0 0 0 0-75.434667z" fill="#517ab4" p-id="10646"></path></svg>