<?xml version="1.0" encoding="UTF-8"?>
<svg width="24px" height="24px" viewBox="0 0 24 24" version="1.1" xmlns="http://www.w3.org/2000/svg" xmlns:xlink="http://www.w3.org/1999/xlink">
    <title>GV1-white</title>
    <g id="页面-1" stroke="none" stroke-width="1" fill="none" fill-rule="evenodd">
        <g id="GV4-图片缩放操作" transform="translate(-228.000000, -247.000000)" stroke="#FFFFFF" stroke-width="1.5">
            <g id="编组-12" transform="translate(88.000000, 241.000000)">
                <g id="编组-11" transform="translate(140.000000, 6.000000)">
                    <rect id="矩形" x="4" y="5.875" width="16" height="12.25" rx="1"></rect>
                    <path d="M4,16.2490857 L7.33492608,13.4343608 C7.70081226,13.1255477 8.23425172,13.1194091 8.60714742,13.4197207 L10.7785902,15.1684923 L10.7785902,15.1684923 L14.378773,11.7250564 C14.7778892,11.3433173 15.4108974,11.3574041 15.7926366,11.7565202 C15.7950625,11.7590566 15.7974751,11.7616057 15.7998742,11.7641675 L20,16.2490857 L20,16.2490857" id="路径-6" stroke-linecap="round" stroke-linejoin="round"></path>
                    <path d="M8.75011018,11.1129146 C9.5785373,11.1129146 10.2500991,10.4413417 10.2500991,9.61291459 C10.2500991,8.78448747 9.5785373,8.11291459 8.75011018,8.11291459 C7.92168305,8.11291459 7.25009908,8.78448747 7.25009908,9.61291459 C7.25009908,10.4413417 7.92168305,11.1129146 8.75011018,11.1129146 Z" id="椭圆形"></path>
                </g>
            </g>
        </g>
    </g>
</svg>