<?xml version="1.0" encoding="UTF-8"?>
<svg width="24px" height="24px" viewBox="0 0 24 24" version="1.1" xmlns="http://www.w3.org/2000/svg" xmlns:xlink="http://www.w3.org/1999/xlink">
    <title>GV1-white备份 3</title>
    <g id="页面-1" stroke="none" stroke-width="1" fill="none" fill-rule="evenodd">
        <g id="GV4-图片缩放操作" transform="translate(-755.000000, -631.000000)">
            <g id="编组-8" transform="translate(88.000000, 241.000000)">
                <g id="编组-16" transform="translate(533.000000, 380.000000)">
                    <g id="编组-13" transform="translate(134.000000, 10.000000)">
                        <rect id="矩形" stroke="#FFFFFF" stroke-width="2" x="6.01651433" y="8.91175479" width="15" height="11" rx="1"></rect>
                        <path d="M13.0704447,2.20397565 C13.9301895,2.26469097 14.3155418,3.31193243 13.7002071,3.9154311 L11.7184564,5.85906282 L11.6234155,5.94136237 C11.2281808,6.24256356 10.6612458,6.20932726 10.3042793,5.84535984 C10.1147038,5.65206641 10.0195399,5.4013763 10.0182324,5.1504572 L10.0185268,5.15144253 L10.0177325,4.24230154 C6.35554375,4.66921379 4.08152641,6.61550519 3.04347468,10.1371941 L2.96534295,10.4138518 C2.8212051,10.946996 2.27215953,11.262348 1.73901534,11.1182101 C1.20587115,10.9740723 0.890519204,10.4250267 1.03465705,9.89188252 C2.53261281,4.3511698 6.64808125,1.75042726 13.0704447,2.20397565 Z" id="路径-10" fill="#FFFFFF" fill-rule="nonzero"></path>
                    </g>
                </g>
            </g>
        </g>
    </g>
</svg>