<?xml version="1.0" encoding="utf-8"?>
<!-- Generator: Adobe Illustrator 16.0.0, SVG Export Plug-In . SVG Version: 6.00 Build 0)  -->
<!DOCTYPE svg PUBLIC "-//W3C//DTD SVG 1.1//EN" "http://www.w3.org/Graphics/SVG/1.1/DTD/svg11.dtd">
<svg version="1.1" id="图层_1" xmlns="http://www.w3.org/2000/svg" xmlns:xlink="http://www.w3.org/1999/xlink" x="0px" y="0px"
	 width="24px" height="24px" viewBox="0 0 24 24" enable-background="new 0 0 24 24" xml:space="preserve">
<title>GV1-white备份 3</title>
<path id="矩形备份" fill="none" stroke="#FFFFFF" stroke-width="2" d="M5,4h14c0.553,0,1,0.448,1,1v14c0,0.553-0.447,1-1,1H5
	c-0.552,0-1-0.447-1-1V5C4,4.448,4.448,4,5,4z"/>
<path id="矩形备份_1_" fill="none" stroke="#FFFFFF" stroke-width="2" d="M5,12h6c0.552,0,1,0.448,1,1v6c0,0.553-0.448,1-1,1H5
	c-0.552,0-1-0.447-1-1v-6C4,12.448,4.448,12,5,12z"/>
</svg>
