<?xml version="1.0" encoding="UTF-8"?>
<svg width="69px" height="61px" viewBox="0 0 69 61" version="1.1" xmlns="http://www.w3.org/2000/svg" xmlns:xlink="http://www.w3.org/1999/xlink">
    <title>形状结合备份</title>
    <defs>
        <linearGradient x1="50%" y1="0%" x2="50%" y2="100%" id="linearGradient-1">
            <stop stop-color="#0AF2BF" offset="0%"></stop>
            <stop stop-color="#0493E1" offset="100%"></stop>
        </linearGradient>
    </defs>
    <g id="页面-1" stroke="none" stroke-width="1" fill="none" fill-rule="evenodd">
        <g id="GV1-初始状态" transform="translate(-433.000000, -392.000000)" fill="url(#linearGradient-1)" fill-rule="nonzero">
            <path d="M437.813953,428.118421 L437.813953,447.381579 C437.813953,447.793197 438.123683,448.132447 438.522711,448.178811 L438.616279,448.184211 L496.383721,448.184211 C496.795182,448.184211 497.134302,447.874362 497.180649,447.475183 L497.186047,447.381579 L497.186047,428.118421 L502,428.118421 L502,447.381579 C502,450.419902 499.589185,452.894934 496.5768,452.996742 L496.383721,453 L438.616279,453 C435.579114,453 433.105025,450.588266 433.003257,447.574732 L433,447.381579 L433,428.118421 L437.813953,428.118421 Z M469.906977,392 L469.906,430.166 L483.388914,416.684448 L486.792894,420.088427 L469.19896,437.68236 C468.292203,438.589118 466.842449,438.621772 465.897227,437.780124 L465.794332,437.683009 L448.207106,420.095784 L451.612384,416.690506 L465.093,430.171 L465.093023,392 L469.906977,392 Z" id="形状结合备份"></path>
        </g>
    </g>
</svg>